<?xml version="1.0" encoding="UTF-8" standalone="no"?>
<svg width="28px" height="37px" viewBox="0 0 28 37" version="1.1" xmlns="http://www.w3.org/2000/svg" xmlns:xlink="http://www.w3.org/1999/xlink">
    <!-- Generator: Sketch 40.2 (33826) - http://www.bohemiancoding.com/sketch -->
    <title>Group-23</title>
    <desc>Created with Sketch.</desc>
    <defs>
        <polygon id="path-1" points="4.15492612e-05 36.4825397 27.8249601 36.4825397 27.8249601 0.177852381 4.15492612e-05 0.177852381"></polygon>
    </defs>
    <g id="Page-1" stroke="none" stroke-width="1" fill="none" fill-rule="evenodd">
        <g id="Group-23" transform="translate(0.000000, 0.172941)">
            <g id="Fill-21-Clipped">
                <g>
                    <mask id="mask-2" fill="white">
                        <use xlink:href="#path-1"></use>
                    </mask>
                    <g id="path-1"></g>
                    <path d="M27.6039057,23.894064 C27.3288383,23.2812275 26.8305633,22.8118656 26.2015876,22.5726243 C25.5726119,22.3326814 24.8861698,22.3519751 24.2719111,22.6252433 C23.6566011,22.8992132 23.1849569,23.3955862 22.9463315,24.0178941 L21.5941213,27.4907513 C20.8491617,29.4320433 18.6566819,30.4090037 16.7080836,29.6660227 C16.2210216,29.4804529 15.67369,29.7242544 15.4869245,30.2101037 C15.3005094,30.6963037 15.5450916,31.2410862 16.0328544,31.4270068 C18.956628,32.5393735 22.2437709,31.0758624 23.3594582,28.167783 L24.7120189,24.6949259 C24.771938,24.5384719 24.8896739,24.4146417 25.0435013,24.346237 C25.1973288,24.2774814 25.3686765,24.2732719 25.5263585,24.3329068 C25.8508329,24.456737 26.0141213,24.82051 25.8935822,25.1348211 L24.1040674,29.6590068 C23.2581914,31.8647973 21.2668437,33.3795243 18.9082722,33.6117497 L9.75185714,34.5143417 L3.53323181,27.7584068 C1.93118329,26.0181195 1.46164151,23.5664227 2.30436388,21.3697529 L4.09387871,16.8455671 C4.15379784,16.6887624 4.27153369,16.5649322 4.42571159,16.4965275 C4.57918868,16.4277719 4.75053639,16.4232116 4.90821833,16.4831973 C5.23269272,16.6066767 5.39563073,16.9708005 5.27369003,17.2896719 L3.92077898,20.7621783 C3.37975472,22.1730703 3.42250404,23.7095465 4.04131806,25.0881656 C4.65978167,26.4671354 5.78037466,27.5233751 7.19670889,28.0625449 C10.0623154,29.1535132 12.8525849,27.7545481 14.1501321,24.5640798 L18.3150377,13.7070163 C18.3630431,13.581783 18.3816146,13.4530417 18.3756577,13.3271068 C18.3637439,12.9587735 18.1349299,12.6160481 17.7680566,12.4760814 C15.0320997,11.4345751 13.672531,8.32934968 14.7374097,5.55387032 C15.2542561,4.2068227 16.2574636,3.13830524 17.5627197,2.54441159 C18.8623693,1.95367508 20.3074367,1.90561635 21.6295121,2.40935603 C22.9526388,2.91274492 23.9964933,3.9082973 24.5694043,5.2125481 C25.1447682,6.52135921 25.1770054,7.98451952 24.660159,9.33191794 C24.05431,10.911191 22.7847951,12.0989783 21.1771402,12.5893878 C20.677814,12.741983 20.3971402,13.2688751 20.5502668,13.7663005 C20.6746604,14.1718179 21.0492426,14.4331592 21.45431,14.4331592 C21.5457655,14.4331592 21.6393235,14.4194783 21.7314798,14.3914148 C23.9004825,13.7294671 25.6118571,12.1305497 26.4275984,10.0047402 C27.1224501,8.19218937 27.0782992,6.22213222 26.302504,4.45658778 C25.5246065,2.68613222 24.1051186,1.3338227 22.3050916,0.648371905 C20.5054151,-0.0363773016 18.5417493,0.0274671429 16.7774636,0.830083016 C15.0173827,1.63024333 13.6651725,3.0688481 12.9699704,4.8810481 C11.6485957,8.32584175 13.1111833,12.1463354 16.2392426,13.8378624 L12.3897008,23.8737179 C11.3129084,26.5229116 9.34959299,26.8642338 7.87193801,26.3019116 C6.92794879,25.9426989 6.18053639,25.2383052 5.76846092,24.3192259 C5.35568464,23.3997957 5.32730189,22.375829 5.68646631,21.4395608 L7.03937736,17.9667037 C7.53554987,16.6726259 6.88239623,15.2168322 5.58344744,14.722564 C4.9544717,14.4826211 4.26873046,14.5019148 3.65307008,14.7755338 C3.03811051,15.0495037 2.56681671,15.5455259 2.3299434,16.1639751 L0.540428571,20.6881608 C-0.562994609,23.5650195 0.0495121294,26.7625037 2.13897305,29.0321386 L8.99673585,36.4826449 L19.0939865,35.4874433 C22.1705364,35.1843576 24.7677332,33.2090386 25.8680027,30.3409497 L27.6575175,25.8164132 C27.8978949,25.1898957 27.878973,24.5069005 27.6039057,23.894064" id="Fill-21" fill="#FFFFFF" mask="url(#mask-2)"></path>
                </g>
            </g>
            <path d="M17.1421644,8.3461527 C16.893027,8.3461527 16.6470431,8.24547492 16.473593,8.0697273 C16.2969892,7.89678603 16.1960728,7.65193206 16.1960728,7.40392095 C16.1960728,7.34393524 16.2023801,7.28114317 16.2149946,7.22150825 C16.2244555,7.16187333 16.2433774,7.10223841 16.2686065,7.04540984 C16.2906819,6.98893206 16.3190647,6.93245429 16.3537547,6.88229079 C16.3884447,6.82897016 16.429442,6.78161302 16.473593,6.73776381 C16.6911941,6.51781619 17.0188221,6.42064635 17.3250755,6.47993048 C17.3846442,6.49255905 17.4449137,6.5118527 17.5016792,6.5336019 C17.5615984,6.55850825 17.6152102,6.58692254 17.6656685,6.62165111 C17.7192803,6.65602889 17.7662345,6.69356381 17.8107358,6.73776381 C17.8548868,6.78161302 17.8927305,6.82897016 17.9270701,6.88229079 C17.9617601,6.93245429 17.9901429,6.98893206 18.015372,7.04540984 C18.0377978,7.10223841 18.0563693,7.16187333 18.0689838,7.22150825 C18.0815984,7.28114317 18.0882561,7.34393524 18.0882561,7.40392095 C18.0882561,7.65193206 17.9869892,7.89678603 17.8107358,8.0697273 C17.6337817,8.24547492 17.3913019,8.3461527 17.1421644,8.3461527" id="Fill-24" fill="#FFFFFF"></path>
            <path d="M16.473558,6.73769392 C16.4290566,6.78189392 16.3880593,6.82890027 16.3537197,6.8825717 L16.3537197,6.8825717 C16.3190296,6.93273519 16.2906469,6.98921297 16.2685714,7.04533995 L16.2685714,7.04533995 C16.2433423,7.10216852 16.2244205,7.16180344 16.2149596,7.22143837 L16.2149596,7.22143837 C16.202345,7.28107329 16.1960377,7.34386535 16.1960377,7.40350027 L16.1960377,7.40350027 C16.1960377,7.65186217 16.2966038,7.89671614 16.473558,8.07000821 L16.473558,8.07000821 C16.6470081,8.24575583 16.8929919,8.34608281 17.1421294,8.34608281 L17.1421294,8.34608281 C17.3912668,8.34608281 17.6337466,8.24575583 17.8107008,8.07000821 L17.8107008,8.07000821 C17.9869542,7.89671614 18.0878706,7.65186217 18.0878706,7.40350027 L18.0878706,7.40350027 C18.0878706,7.34386535 18.0815633,7.28107329 18.0689488,7.22143837 L18.0689488,7.22143837 C18.0563342,7.16180344 18.0374124,7.10216852 18.0153369,7.04533995 L18.0153369,7.04533995 C17.9901078,6.98921297 17.9617251,6.93273519 17.927035,6.8825717 L17.927035,6.8825717 C17.892345,6.82890027 17.8545013,6.78189392 17.8107008,6.73769392 L17.8107008,6.73769392 C17.7661995,6.69349392 17.7192453,6.655959 17.6656334,6.62158122 L17.6656334,6.62158122 C17.6151752,6.58685265 17.5615633,6.55843837 17.5012938,6.53353202 L17.5012938,6.53353202 C17.4448787,6.51178281 17.3846092,6.49248916 17.3250404,6.48021138 L17.3250404,6.48021138 C17.2654717,6.46863519 17.2052022,6.4626717 17.1449326,6.4626717 L17.1449326,6.4626717 C16.8954447,6.4626717 16.6487601,6.56054313 16.473558,6.73769392" id="Fill-27"></path>
            <path d="M19.6647251,8.34615297 C19.4155876,8.34615297 19.1696038,8.24547519 18.993,8.06972757 C18.8195499,7.8967863 18.7186334,7.65193233 18.7186334,7.40392122 C18.7186334,7.34393551 18.7249407,7.28114344 18.7375553,7.22150852 C18.7470162,7.1618736 18.765938,7.10223868 18.7911671,7.04541011 C18.8132426,6.98577519 18.8416253,6.93245456 18.8763154,6.88229106 C18.9110054,6.82897043 18.9520027,6.78161329 18.993,6.73776408 C19.2137547,6.5209736 19.5413827,6.42064662 19.8476361,6.47993075 C19.9103585,6.49255932 19.9674744,6.51185297 20.0242399,6.53360217 C20.084159,6.55850852 20.1377709,6.58692281 20.1882291,6.62165138 C20.241841,6.65602916 20.2887951,6.69356408 20.3332965,6.73776408 C20.5095499,6.9135117 20.6108167,7.15555932 20.6108167,7.40392122 C20.6108167,7.65193233 20.5095499,7.8967863 20.3332965,8.06972757 C20.1563423,8.24547519 19.9138625,8.34615297 19.6647251,8.34615297" id="Fill-29" fill="#FFFFFF"></path>
            <path d="M18.992965,6.73769392 C18.9516173,6.78189392 18.9109704,6.82890027 18.8762803,6.8825717 L18.8762803,6.8825717 C18.8415903,6.93273519 18.8132075,6.98605583 18.7911321,7.04533995 L18.7911321,7.04533995 C18.765903,7.10216852 18.7469811,7.16180344 18.7375202,7.22143837 L18.7375202,7.22143837 C18.7249057,7.28107329 18.7185984,7.34386535 18.7185984,7.40350027 L18.7185984,7.40350027 C18.7185984,7.65186217 18.8195148,7.89671614 18.992965,8.07000821 L18.992965,8.07000821 C19.1695687,8.24575583 19.4155526,8.34608281 19.66469,8.34608281 L19.66469,8.34608281 C19.9138275,8.34608281 20.1563073,8.24575583 20.3332615,8.07000821 L20.3332615,8.07000821 C20.5095148,7.89671614 20.6107817,7.65186217 20.6107817,7.40350027 L20.6107817,7.40350027 C20.6107817,7.15548916 20.5095148,6.91379233 20.3332615,6.73769392 L20.3332615,6.73769392 C20.2891105,6.69349392 20.2418059,6.655959 20.1881941,6.62158122 L20.1881941,6.62158122 C20.1377358,6.58685265 20.084124,6.55843837 20.0242049,6.53353202 L20.0242049,6.53353202 C19.9674394,6.51178281 19.9106739,6.49248916 19.8476011,6.48021138 L19.8476011,6.48021138 C19.7890836,6.46898598 19.7298652,6.46302249 19.6706469,6.46302249 L19.6706469,6.46302249 C19.4197574,6.46302249 19.1713208,6.5622971 18.992965,6.73769392" id="Fill-31"></path>
            <path d="M22.1873208,8.34615297 C22.124248,8.34615297 22.0639784,8.33983868 22.0012561,8.32721011 C21.9413369,8.31458154 21.8810674,8.29879583 21.8246523,8.27388948 C21.7678868,8.25214027 21.7142749,8.22337519 21.6606631,8.18899741 C21.6102049,8.15426884 21.5597466,8.11357678 21.5187493,8.06972757 C21.4745984,8.02552757 21.4336011,7.97852122 21.3989111,7.92835773 C21.364221,7.87819424 21.3358383,7.82171646 21.3137628,7.76488789 C21.2885337,7.70841011 21.2696119,7.6484244 21.2601509,7.58914027 C21.2475364,7.52915456 21.2412291,7.46671329 21.2412291,7.40392122 C21.2412291,7.15555932 21.3421456,6.9135117 21.5187493,6.73776408 C21.8684528,6.38907519 22.5026846,6.38591805 22.8558922,6.73776408 C22.9000431,6.78161329 22.9378868,6.82897043 22.9722264,6.88229106 C23.0069164,6.93245456 23.0352992,6.98577519 23.0605283,7.04541011 C23.0829542,7.10223868 23.1015256,7.1618736 23.1141402,7.22150852 C23.1267547,7.28114344 23.1334124,7.34393551 23.1334124,7.40392122 C23.1334124,7.46671329 23.1267547,7.52915456 23.1141402,7.58914027 C23.1015256,7.6484244 23.0829542,7.70841011 23.0605283,7.76488789 C23.0352992,7.82171646 23.0069164,7.87819424 22.9722264,7.92835773 C22.9378868,7.97852122 22.8968895,8.02552757 22.8558922,8.06972757 C22.8113908,8.11357678 22.7644367,8.15426884 22.7108248,8.18899741 C22.6603666,8.22337519 22.6067547,8.25214027 22.5468356,8.27388948 C22.4900701,8.29879583 22.4298005,8.31458154 22.3702318,8.32721011 C22.3103127,8.33983868 22.2468895,8.34615297 22.1873208,8.34615297" id="Fill-33" fill="#FFFFFF"></path>
            <path d="M22.1637736,6.47530027 C21.9247978,6.48091297 21.6886253,6.56861138 21.5186792,6.73769392 L21.5186792,6.73769392 C21.3420755,6.91379233 21.2415094,7.15548916 21.2415094,7.40350027 L21.2415094,7.40350027 C21.2415094,7.46664313 21.2474663,7.52943519 21.2604313,7.58907011 L21.2604313,7.58907011 C21.2698922,7.64870503 21.2884636,7.70833995 21.3140431,7.76481773 L21.3140431,7.76481773 C21.3357682,7.8216463 21.3645013,7.87812408 21.3991914,7.92828757 L21.3991914,7.92828757 C21.433531,7.97845106 21.4745283,8.02545741 21.5186792,8.07000821 L21.5186792,8.07000821 C21.560027,8.11385741 21.6104852,8.15454948 21.660593,8.18927805 L21.660593,8.18927805 C21.7142049,8.22365583 21.7678167,8.25207011 21.8245822,8.27381932 L21.8245822,8.27381932 C21.8813477,8.29907646 21.9412668,8.31451138 22.001186,8.32713995 L22.001186,8.32713995 C22.0642588,8.33976852 22.1241779,8.34608281 22.1876011,8.34608281 L22.1876011,8.34608281 C22.2471698,8.34608281 22.3102426,8.33976852 22.3705121,8.32713995 L22.3705121,8.32713995 C22.4300809,8.31451138 22.4903504,8.29907646 22.5467655,8.27381932 L22.5467655,8.27381932 C22.6066846,8.25207011 22.6602965,8.22365583 22.7111051,8.18927805 L22.7111051,8.18927805 C22.7643666,8.15454948 22.8116712,8.11385741 22.8558221,8.07000821 L22.8558221,8.07000821 C22.8968194,8.02545741 22.9378167,7.97845106 22.9725067,7.92828757 L22.9725067,7.92828757 C23.0071968,7.87812408 23.0355795,7.8216463 23.0608086,7.76481773 L23.0608086,7.76481773 C23.0828841,7.70833995 23.1018059,7.64870503 23.1144205,7.58907011 L23.1144205,7.58907011 C23.127035,7.52943519 23.1333423,7.46664313 23.1333423,7.40350027 L23.1333423,7.40350027 C23.1333423,7.34386535 23.127035,7.28107329 23.1144205,7.22143837 L23.1144205,7.22143837 C23.1018059,7.16180344 23.0828841,7.10216852 23.0608086,7.04533995 L23.0608086,7.04533995 C23.0355795,6.98605583 23.0071968,6.93273519 22.9725067,6.8825717 L22.9725067,6.8825717 C22.9378167,6.82890027 22.899973,6.78189392 22.8558221,6.73769392 L22.8558221,6.73769392 C22.685876,6.56826059 22.4504043,6.48091297 22.2128302,6.47530027 L22.2128302,6.47530027 L22.1637736,6.47530027 L22.1637736,6.47530027 L22.1637736,6.47530027 Z" id="Fill-35"></path>
        </g>
    </g>
</svg>
